# xmcd
#
# Track frame offsets: 
#        150
#        18165
#        35717
#        53655
#
# Disc length: 947 seconds
#
# Revision: 5
# Processed by: cddbd v1.5.2PL0 Copyright (c) Steve Scherf et al.
# Submitted via: ExactAudioCopy v1.3
#
DISCID=2803b104
DTITLE=ZARD - 君がいない [BGDH-1004]
DYEAR=1993
DGENRE=Anime
TTITLE0=君がいない
TTITLE1=私だけ見つめて
TTITLE2=君がいない(オリジナル?カラオケ)
TTITLE3=私だけ見つめて(同)
EXTD=YEAR: 1993
EXTT0=
EXTT1=
EXTT2=
EXTT3=
PLAYORDER=
